<svg id="Layer_1" data-name="Layer 1" xmlns="http://www.w3.org/2000/svg" viewBox="0 0 100 100"><defs><style>.cls-1{fill:#e06893;}</style></defs><path class="cls-1" d="M52.53,58.37c-4.57,1-9.13,2.16-13.72,3.08-1.86.37-2.56,1.27-2.83,3.11C34.47,74.7,32.83,84.82,30.92,95c-.38-2.52-.78-5-1.13-7.57-1.05-7.62-2.14-15.24-3.1-22.87a3.07,3.07,0,0,0-2.83-3.1A142.91,142.91,0,0,1,9.39,57.93c.88-.22,1.76-.45,2.65-.64,3.9-.82,7.79-1.7,11.71-2.42a3.21,3.21,0,0,0,3-3c1.15-6.38,2.48-12.72,3.75-19.07a1.37,1.37,0,0,1,.66-1c.64,3.15,1.29,6.3,1.92,9.45.73,3.7,1.47,7.4,2.15,11.11a2.6,2.6,0,0,0,2.35,2.35c5,1,10,2.08,15,3.13Z"/><path class="cls-1" d="M76.77,21.52c-2.54.58-5.06,1.23-7.61,1.71a2.45,2.45,0,0,0-2.38,2.42c-.71,5.36-1.62,10.7-2.47,16a5.23,5.23,0,0,1-.72,2.08c-.75-5.42-1.54-10.83-2.24-16.25-.49-3.8-.44-3.8-4.14-4.58A31.13,31.13,0,0,1,50.77,21c2.43-.51,4.85-1.17,7.31-1.51,2.11-.29,3-1.31,3.29-3.39A81.26,81.26,0,0,1,63.87,5c.73,3.68,1.61,7.34,2.14,11.05.31,2.21,1.26,3.2,3.43,3.49,2.45.34,4.87,1,7.3,1.48Z"/><path class="cls-1" d="M74.66,62.15a26.69,26.69,0,0,1,4-.91c2-.12,2.62-1.23,2.84-3A20.23,20.23,0,0,1,82.86,53c.37,1.78.88,3.54,1.08,5.33s.86,2.71,2.72,2.84a27.29,27.29,0,0,1,4,.9c-1,.31-1.58.51-2.16.65-4.71,1.11-3.46.07-4.34,4.63a50.43,50.43,0,0,1-1.57,7.13c-.36-2.47-.74-4.94-1.05-7.41-.45-3.55-.42-3.55-3.9-4.27C76.77,62.67,76,62.46,74.66,62.15Z"/></svg>